# AST/ASF file generated using VICON BodyLanguage
# -----------------------------------------------
:version 1.10
:name VICON
:units
  mass 1.0
  length 0.45
  angle deg
:documentation
   .ast/.asf automatically generated from VICON data using
   VICON BodyBuilder and BodyLanguage model FoxedUp or BRILLIANT.MOD
:root
   order TX TY TZ RX RY RZ
   axis XYZ
   position 0 0 0  
   orientation 0 0 0 
:bonedata
  begin
     id 1 
     name lhipjoint
     direction 0.722297 -0.617336 0.311742 
     length 2.6635 
     axis 0 0 0  XYZ
  end
  begin
     id 2 
     name lfemur
     direction 0.34202 -0.939693 0  
     length 7.39349  
     axis 0 0 20  XYZ
    dof rx ry rz
    limits (-160.0 20.0)
           (-70.0 70.0)
           (-60.0 70.0)
  end
  begin
     id 3 
     name ltibia
     direction 0.34202 -0.939693 0   
     length 7.36294   
     axis 0 0 20   XYZ
    dof rx
    limits (-10.0 170.0)
  end
  begin
     id 4 
     name lfoot
     direction 0.104879 -0.288152 0.951824   
     length 2.16981   
     axis -90 7.62852e-016 20   XYZ
    dof rx rz
    limits (-45.0 90.0)
           (-70.0 20.0)
  end
  begin
     id 5 
     name ltoes
     direction 1.53586e-011 -4.21895e-011 1   
     length 1.08218   
     axis -90 7.62852e-016 20   XYZ
    dof rx
    limits (-90.0 20.0)
  end
  begin
     id 6 
     name rhipjoint
     direction -0.75102 -0.589393 0.297631   
     length 2.78977  
     axis 0 0 0  XYZ 
  end
  begin
     id 7 
     name rfemur
     direction -0.34202 -0.939693 0   
     length 7.46076   
     axis 0 0 -20   XYZ
    dof rx ry rz
    limits (-160.0 20.0)
           (-70.0 70.0)
           (-70.0 60.0)
  end
  begin
     id 8 
     name rtibia
     direction -0.34202 -0.939693 0   
     length 7.31726   
     axis 0 0 -20   XYZ
    dof rx
    limits (-10.0 170.0)
 end
 begin
     id 9 
     name rfoot
     direction -0.107991 -0.296704 0.948844   
     length 2.09388  
     axis -90 -7.62852e-016 -20   XYZ
    dof rx rz
    limits (-45.0 90.0)
           (-20.0 70.0)
  end
  begin
     id 10 
     name rtoes
     direction -1.53559e-011 -4.21911e-011 1   
     length 1.04433   
     axis -90 -7.62852e-016 -20   XYZ
    dof rx
    limits (-90.0 20.0)
  end
  begin
     id 11 
     name lowerback
     direction 0.0165164 0.98272 0.184358   
     length 1.71896   
     axis 0 0 0   XYZ
    dof rx ry rz
    limits (-20.0 45.0)
           (-30.0 30.0)
           (-30.0 30.0)
  end
  begin
     id 12 
     name upperback
     direction -0.00887249 0.992297 0.123566   
     length 1.71504   
     axis 0 0 0   XYZ
    dof rx ry rz
    limits (-20.0 45.0)
           (-30.0 30.0)
           (-30.0 30.0)
  end
  begin
     id 13 
     name thorax
     direction -0.0157026 0.998908 0.0440032   
     length 1.77022   
     axis 0 0 0   XYZ
    dof rx ry rz
    limits (-20.0 45.0)
           (-30.0 30.0)
           (-30.0 30.0)
  end
  begin
     id 14 
     name lowerneck
     direction -0.0238856 0.998137 0.0561411   
     length 1.89341   
     axis 0 0 0   XYZ
    dof rx ry rz
    limits (-20.0 45.0)
           (-30.0 30.0)
           (-30.0 30.0)
  end
  begin
     id 15 
     name upperneck
     direction 0.0276574 0.952253 -0.304056   
     length 1.86999   
     axis 0 0 0   XYZ
    dof rx ry rz
    limits (-20.0 45.0)
           (-30.0 30.0)
           (-30.0 30.0)
  end
  begin
     id 16
     name head
     direction 0.00800083 0.994258 -0.106712  
     length 1.91492  
     axis 0 0 0   XYZ
    dof rx ry rz
    limits (-20.0 45.0)
           (-30.0 30.0)
           (-30.0 30.0)
  end
  begin
     id 17 
     name lclavicle
     direction 0.97203 0.225407 0.06595  
     length 3.34889  
     axis 0 0 0   XYZ
    dof ry rz
    limits (-20.0 10.0)
           (0.0 20.0)
  end
  begin
     id 18 
     name lhumerus
     direction 1 -4.48973e-011 2.20267e-027   
     length 4.85645   
     axis 180 -30 -90   XYZ
    dof rx ry rz
    limits (-60.0 90.0)
           (-90.0 90.0)
           (-90.0 90.0)
  end
  begin
     id 19
     name lradius
     direction 1 -4.4897e-011 4.60472e-027   
     length 2.79874   
     axis 180 -30 -90   XYZ
    dof rx
    limits (-10.0 170.0)
  end
  begin
     id 20
     name lwrist
     direction 1 -4.48952e-011 1.14928e-026   
     length 1.39937   
     axis -6.29373e-015 90 90   XYZ
    dof ry
    limits (-180.0 0.0)
 end
  begin
     id 21 
     name lhand
     direction 1 -4.48967e-011 2.29886e-026   
     length 0.573398   
     axis -1.46689e-014 90 90   XYZ
    dof rx rz
    limits (-90.0 90.0)
           (-45.0 45.0)
  end
  begin
     id 22 
     name lfingers
     direction 1 -4.48955e-011 4.59726e-026   
     length 0.462289   
     axis -2.93383e-014 90 90   XYZ
    dof rx
    limits (0.0 90.0)
  end
  begin
     id 23
     name lthumb
     direction 0.707107 -6.34866e-011 0.707107   
     length 0.663757   
     axis -90 45 5.69224e-014   XYZ
    dof rx rz
    limits (-45.0 45.0)
           (-45.0 45.0)
  end
  begin
     id 24 
     name rclavicle
     direction -0.981571 0.157346 0.108443   
     length 3.35257  
     axis 0 0 0   XYZ 
    dof ry rz
    limits (-10.0 20.0)
           (-20.0 0.0)
  end
  begin
     id 25 
     name rhumerus
     direction -1 -4.48967e-011 8.58308e-029  
     length 4.67018   
     axis 180 30 90   XYZ
    dof rx ry rz
    limits (-90.0 60.0)
           (-90.0 90.0)
           (-90.0 90.0)
  end
  begin
     id 26 
     name rradius
     direction -1 -4.48958e-011 4.52548e-027   
     length 2.65534   
     axis 180 30 90   XYZ
    dof rx
    limits (-10.0 170.0)
  end
  begin
     id 27 
     name rwrist
     direction -1 -4.48977e-011 1.14952e-026   
     length 1.32767   
     axis -6.29373e-015 -90 -90   XYZ
    dof ry
    limits (-180.0 0.0)
  end
  begin
     id 28
     name rhand
     direction -1 -4.48924e-011 2.29804e-026   
     length 0.594069   
     axis -1.46689e-014 -90 -90   XYZ
    dof rx rz
    limits (-90.0 90.0)
           (-45.0 45.0)
  end
  begin
     id 29
     name rfingers
     direction -1 -4.48998e-011 4.59888e-026   
     length 0.478954   
     axis -2.93383e-014 -90 -90   XYZ
    dof rx
    limits (0.0 90.0)
  end
  begin
     id 30
     name rthumb
     direction -0.707107 -6.34933e-011 0.707107   
     length 0.687685   
     axis -90 -45 -5.69224e-014   XYZ
    dof rx rz
    limits (-45.0 45.0)
           (-45.0 45.0)
  end
:hierarchy
  begin
    root lhipjoint rhipjoint lowerback
    lhipjoint lfemur
    lfemur ltibia
    ltibia lfoot
    lfoot ltoes
    rhipjoint rfemur
    rfemur rtibia
    rtibia rfoot
    rfoot rtoes
    lowerback upperback
    upperback thorax
    thorax lowerneck lclavicle rclavicle
    lowerneck upperneck
    upperneck head
    lclavicle lhumerus
    lhumerus lradius
    lradius lwrist
    lwrist lhand lthumb
    lhand lfingers
    rclavicle rhumerus
    rhumerus rradius
    rradius rwrist
    rwrist rhand rthumb
    rhand rfingers
  end

#!OML:ASF E:\pregnant2\Project 1\Capture day 1\Session 1\pregnant2.ASF
:FULLY-SPECIFIED
:DEGREES
305
root -4.23875 15.7403 20.0616 27.8779 5.62137 -0.665603
lowerback -20.2802 0.932522 1.66316
upperback -16.0762 1.06106 -0.811448
thorax -6.23367 0.381827 -1.66018
lowerneck -15.4001 -2.57783 -3.11361
upperneck 35.6147 -3.73094 2.34304
head 15.1012 -1.66991 0.891752
rclavicle -2.03754e-015 -1.98785e-015
rhumerus -23.0349 5.91254 -79.5959
rradius 115.642
rwrist 37.3632
rhand -4.48508 -8.07242
rfingers 7.12502
rthumb 21.2881 -36.9233
lclavicle -2.03754e-015 -1.98785e-015
lhumerus -27.173 -2.0076 79.908
lradius 118.525
lwrist -28.2475
lhand -8.7998 15.4666
lfingers 7.12502
lthumb 17.1391 44.7307
rfemur -56.6014 -3.55237 20.0278
rtibia 61.9985
rfoot -27.2251 -13.5332
rtoes -14.4342
lfemur -57.1777 6.56135 -20.3212
ltibia 61.3719
lfoot -27.2914 5.791
ltoes -13.4645
306
root -4.23759 15.742 20.0613 27.872 5.61769 -0.658283
lowerback -20.2848 0.935341 1.66286
upperback -16.0717 1.06446 -0.819711
thorax -6.22576 0.383177 -1.66831
lowerneck -15.4034 -2.55116 -3.06031
upperneck 35.6197 -3.70091 2.3255
head 15.1012 -1.65208 0.880309
rclavicle -1.16786e-014 8.15017e-015
rhumerus -23.0635 5.90248 -79.6061
rradius 115.645
rwrist 37.3602
rhand -4.48346 -8.07741
rfingers 7.12502
rthumb 21.2896 -36.9281
lclavicle -1.16786e-014 8.15017e-015
lhumerus -27.1818 -2.01646 79.915
lradius 118.527
lwrist -28.2412
lhand -8.79491 15.4664
lfingers 7.12502
lthumb 17.1438 44.7301
rfemur -56.5831 -3.55004 20.0109
rtibia 61.9753
rfoot -27.2153 -13.5324
rtoes -14.4258
lfemur -57.1569 6.56177 -20.3365
ltibia 61.3438
lfoot -27.2814 5.79264
ltoes -13.4811
307
root -4.23655 15.7439 20.0608 27.8713 5.61354 -0.649742
lowerback -20.2897 0.937747 1.65996
upperback -16.0696 1.06774 -0.827404
thorax -6.22066 0.384704 -1.6744
lowerneck -15.4077 -2.5234 -3.01013
upperneck 35.6239 -3.66932 2.31107
head 15.1012 -1.63355 0.870976
rclavicle 4.96962e-016 -9.54166e-015
rhumerus -23.0936 5.8893 -79.6143
rradius 115.647
rwrist 37.3578
rhand -4.48394 -8.07561
rfingers 7.12502
rthumb 21.2892 -36.9263
lclavicle 4.96962e-016 -9.54166e-015
lhumerus -27.1904 -2.02468 79.922
lradius 118.527
lwrist -28.2386
lhand -8.80772 15.4642
lfingers 7.12502
lthumb 17.1315 44.729
rfemur -56.5692 -3.54593 19.9925
rtibia 61.9472
rfoot -27.2027 -13.5308
rtoes -14.4109
lfemur -57.1402 6.56302 -20.3547
ltibia 61.3104
lfoot -27.2666 5.79631
ltoes -13.5131
308
root -4.23553 15.7462 20.0603 27.8754 5.61106 -0.642594
lowerback -20.2972 0.939621 1.65849
upperback -16.0686 1.07013 -0.833937
thorax -6.21558 0.385715 -1.68016
lowerneck -15.4145 -2.49558 -2.96446
upperneck 35.6274 -3.63694 2.29902
head 15.1017 -1.61495 0.863534
rclavicle 4.02539e-015 8.34896e-015
rhumerus -23.1218 5.87446 -79.6217
rradius 115.646
rwrist 37.3587
rhand -4.49168 -8.0674
rfingers 7.12502
rthumb 21.2817 -36.919
lclavicle 4.02539e-015 8.34896e-015
lhumerus -27.1975 -2.03242 79.9268
lradius 118.524
lwrist -28.241
lhand -8.8444 15.4633
lfingers 7.12502
lthumb 17.0962 44.7311
rfemur -56.5579 -3.5412 19.9758
rtibia 61.9141
rfoot -27.1886 -13.5301
rtoes -14.3947
lfemur -57.1264 6.56271 -20.3703
ltibia 61.2725
lfoot -27.2499 5.79453
ltoes -13.5274
309
root -4.23456 15.7487 20.0598 27.8858 5.61021 -0.637415
lowerback -20.3086 0.940474 1.65797
upperback -16.0703 1.07108 -0.837751
thorax -6.21178 0.386053 -1.68372
lowerneck -15.418 -2.46614 -2.92193
upperneck 35.6273 -3.60143 2.28795
head 15.0997 -1.59535 0.85762
rclavicle -7.95139e-015 -3.97569e-016
rhumerus -23.1466 5.86172 -79.6267
rradius 115.645
rwrist 37.357
rhand -4.49803 -8.05801
rfingers 7.12502
rthumb 21.2756 -36.9103
lclavicle -7.95139e-015 -3.97569e-016
lhumerus -27.2067 -2.03619 79.9301
lradius 118.521
lwrist -28.2457
lhand -8.87279 15.4607
lfingers 7.12502
lthumb 17.0689 44.7309
rfemur -56.5517 -3.5356 19.962
rtibia 61.8768
rfoot -27.1741 -13.5285
rtoes -14.3693
lfemur -57.1193 6.56182 -20.3838
ltibia 61.2318
lfoot -27.2305 5.79182
ltoes -13.538
310
root -4.23355 15.7514 20.0593 27.8968 5.60954 -0.634388
lowerback -20.3167 0.941855 1.66106
upperback -16.0733 1.0723 -0.840212
thorax -6.21114 0.386237 -1.68787
lowerneck -15.4254 -2.43478 -2.87487
upperneck 35.6264 -3.56219 2.27114
head 15.0979 -1.57432 0.849098
rclavicle 7.40473e-015 -1.11319e-014
rhumerus -23.1696 5.85378 -79.6331
rradius 115.652
rwrist 37.3523
rhand -4.47768 -8.06752
rfingers 7.12502
rthumb 21.2952 -36.9176
lclavicle 7.40473e-015 -1.11319e-014
lhumerus -27.2083 -2.03985 79.9384
lradius 118.507
lwrist -28.257
lhand -8.93649 15.467
lfingers 7.12502
lthumb 17.0076 44.7425
rfemur -56.5445 -3.52916 19.9504
rtibia 61.8351
rfoot -27.1557 -13.5274
rtoes -14.3516
lfemur -57.1111 6.55975 -20.3936
ltibia 61.1884
lfoot -27.2111 5.78468
ltoes -13.5287
311
root -4.23249 15.7543 20.0588 27.9075 5.60825 -0.633542
lowerback -20.3261 0.943937 1.66671
upperback -16.0758 1.07407 -0.841233
thorax -6.20926 0.386564 -1.69181
lowerneck -15.4308 -2.40344 -2.83109
upperneck 35.6233 -3.52279 2.25671
head 15.0946 -1.55337 0.84218
rclavicle 1.635e-014 -1.94809e-014
rhumerus -23.1867 5.84607 -79.6361
rradius 115.656
rwrist 37.3502
rhand -4.46396 -8.07612
rfingers 7.12502
rthumb 21.3084 -36.9247
lclavicle 1.635e-014 -1.94809e-014
lhumerus -27.2112 -2.04098 79.9434
lradius 118.494
lwrist -28.2682
lhand -8.97654 15.4733
lfingers 7.12502
lthumb 16.969 44.7521
rfemur -56.5344 -3.52132 19.9406
rtibia 61.7886
rfoot -27.1341 -13.5269
rtoes -14.3337
lfemur -57.1008 6.55776 -20.3999
ltibia 61.1422
lfoot -27.1912 5.77215
ltoes -13.4935
312
root -4.23135 15.7575 20.0584 27.913 5.60566 -0.635967
lowerback -20.3285 0.947247 1.67625
upperback -16.0787 1.07702 -0.840577
thorax -6.21123 0.38719 -1.69603
lowerneck -15.4369 -2.37304 -2.78924
upperneck 35.621 -3.48262 2.23803
head 15.092 -1.53295 0.833949
rclavicle -1.05356e-014 -1.59028e-015
rhumerus -23.2017 5.84051 -79.6369
rradius 115.661
rwrist 37.3466
rhand -4.44676 -8.08695
rfingers 7.12502
rthumb 21.3249 -36.9336
lclavicle -1.05356e-014 -1.59028e-015
lhumerus -27.2163 -2.04005 79.9472
lradius 118.481
lwrist -28.2795
lhand -9.02336 15.478
lfingers 7.12502
lthumb 16.924 44.7606
rfemur -56.5159 -3.5108 19.9331
rtibia 61.7365
rfoot -27.1103 -13.5258
rtoes -14.3105
lfemur -57.0838 6.55949 -20.4044
ltibia 61.0931
lfoot -27.1693 5.76427
ltoes -13.4783
313
root -4.23005 15.7612 20.0581 27.9155 5.60358 -0.639281
lowerback -20.3293 0.951644 1.68949
upperback -16.0806 1.08088 -0.840186
thorax -6.21285 0.387931 -1.70251
lowerneck -15.4483 -2.34538 -2.74382
upperneck 35.6236 -3.44502 2.21182
head 15.0927 -1.51414 0.821449
rclavicle 3.57812e-015 4.17448e-015
rhumerus -23.2123 5.83291 -79.634
rradius 115.662
rwrist 37.3471
rhand -4.43959 -8.08913
rfingers 7.12502
rthumb 21.3318 -36.935
lclavicle 3.57812e-015 4.17448e-015
lhumerus -27.2214 -2.03805 79.9463
lradius 118.467
lwrist -28.2911
lhand -9.0818 15.4763
lfingers 7.12502
lthumb 16.8677 44.7637
rfemur -56.4909 -3.50143 19.9261
rtibia 61.6786
rfoot -27.0827 -13.5245
rtoes -14.2937
lfemur -57.0607 6.56093 -20.408
ltibia 61.04
lfoot -27.1459 5.75595
ltoes -13.4601
314
root -4.2287 15.7651 20.0579 27.9124 5.60047 -0.642063
lowerback -20.3271 0.955853 1.70213
upperback -16.0807 1.08459 -0.839509
thorax -6.21375 0.388675 -1.70836
lowerneck -15.458 -2.31952 -2.7025
upperneck 35.6264 -3.4094 2.18692
head 15.0933 -1.49659 0.809888
rclavicle 1.42628e-014 -8.74653e-015
rhumerus -23.2194 5.82366 -79.6272
rradius 115.658
rwrist 37.3492
rhand -4.44582 -8.08007
rfingers 7.12502
rthumb 21.3258 -36.9267
lclavicle 1.42628e-014 -8.74653e-015
lhumerus -27.2305 -2.03416 79.9387
lradius 118.462
lwrist -28.297
lhand -9.09559 15.4706
lfingers 7.12502
lthumb 16.8544 44.7591
rfemur -56.4568 -3.49091 19.9172
rtibia 61.6162
rfoot -27.0566 -13.5213
rtoes -14.2643
lfemur -57.0287 6.56288 -20.4119
ltibia 60.983
lfoot -27.1215 5.74773
ltoes -13.4401
315
root -4.22738 15.7694 20.0575 27.9111 5.59859 -0.644879
lowerback -20.3245 0.959852 1.71499
upperback -16.0806 1.08802 -0.838759
thorax -6.2148 0.389263 -1.71431
lowerneck -15.4711 -2.29505 -2.66455
upperneck 35.6302 -3.37582 2.16489
head 15.0956 -1.47993 0.799739
rclavicle 1.83876e-015 -3.97569e-015
rhumerus -23.221 5.81067 -79.6158
rradius 115.651
rwrist 37.3529
rhand -4.46073 -8.06218
rfingers 7.12502
rthumb 21.3115 -36.9104
lclavicle 1.83876e-015 -3.97569e-015
lhumerus -27.2385 -2.02989 79.9262
lradius 118.463
lwrist -28.2997
lhand -9.08005 15.4659
lfingers 7.12502
lthumb 16.8694 44.7532
rfemur -56.4234 -3.48105 19.9089
rtibia 61.551
rfoot -27.0295 -13.5169
rtoes -14.2312
lfemur -56.9989 6.56518 -20.4168
ltibia 60.9236
lfoot -27.094 5.74311
ltoes -13.4342
316
root -4.22612 15.7736 20.057 27.9105 5.59718 -0.646792
lowerback -20.3209 0.963113 1.72672
upperback -16.0807 1.09066 -0.838239
thorax -6.2165 0.389528 -1.72
lowerneck -15.4866 -2.2699 -2.63106
upperneck 35.636 -3.34229 2.14959
head 15.0997 -1.46292 0.793183
rclavicle 2.3556e-014 2.98177e-015
rhumerus -23.2174 5.79655 -79.6022
rradius 115.643
rwrist 37.3577
rhand -4.48119 -8.04395
rfingers 7.12502
rthumb 21.2918 -36.8944
lclavicle 2.3556e-014 2.98177e-015
lhumerus -27.2442 -2.02708 79.9099
lradius 118.467
lwrist -28.2976
lhand -9.05187 15.4685
lfingers 7.12502
lthumb 16.8965 44.7534
rfemur -56.3902 -3.47047 19.8992
rtibia 61.4835
rfoot -26.9997 -13.5132
rtoes -14.2028
lfemur -56.9689 6.56506 -20.4206
ltibia 60.8623
lfoot -27.0661 5.73363
ltoes -13.4076
